<svg xmlns="http://www.w3.org/2000/svg" viewBox="0 0 120 120" fill="none" aria-hidden="true" focusable="false">
  <circle cx="60" cy="60" r="56" fill="#090d17"/>
  <circle cx="60" cy="60" r="56" stroke="#4b4130" stroke-width="3"/>
  <circle cx="60" cy="60" r="49" stroke="#3a3226" stroke-width="1.5"/>
  <circle cx="60.0" cy="7.5" r="1.8" fill="#3a3226"/>
  <circle cx="86.2" cy="14.5" r="1.8" fill="#3a3226"/>
  <circle cx="105.5" cy="33.8" r="1.8" fill="#3a3226"/>
  <circle cx="112.5" cy="60.0" r="1.8" fill="#3a3226"/>
  <circle cx="105.5" cy="86.2" r="1.8" fill="#3a3226"/>
  <circle cx="86.2" cy="105.5" r="1.8" fill="#3a3226"/>
  <circle cx="60.0" cy="112.5" r="1.8" fill="#3a3226"/>
  <circle cx="33.8" cy="105.5" r="1.8" fill="#3a3226"/>
  <circle cx="14.5" cy="86.2" r="1.8" fill="#3a3226"/>
  <circle cx="7.5" cy="60.0" r="1.8" fill="#3a3226"/>
  <circle cx="14.5" cy="33.7" r="1.8" fill="#3a3226"/>
  <circle cx="33.7" cy="14.5" r="1.8" fill="#3a3226"/>
  <g transform="translate(6 -3) scale(0.94) rotate(14 56 64)">
    <path d="M54 42 L84 21 L74 40 L64 49 ZM62 52 L86 42 L72 58 Z" fill="#3a3226"/>
    <path d="M66 70 L80 73 L67 81 ZM63 82 L76 88 L64 92 Z" fill="#3a3226"/>
    <path d="M12 57 L23 45 L38 39 L55 42 L65 51 L69 64 L65 77 L79 102 L52 97 L36 82 L26 68 L12 62 Z" fill="#6b5c44"/>
    <path d="M40 48 L54 47 L60 51" stroke="#3a3226" stroke-width="2" fill="none" stroke-linejoin="round"/>
    <path d="M14 60 L34 66 L54 67" stroke="#3a3226" stroke-width="2" fill="none" stroke-linejoin="round"/>
    <path d="M20 62l2 6 3-5ZM28 64l2 6 3-5ZM36 66l2 6 3-5ZM25 69l1 -6 3 5ZM33 71l1 -6 3 5Z" fill="#efe7d8"/>
    <path d="M42 53 L51 51 L49 57 Z" fill="#090d17"/>
    <circle cx="19" cy="55" r="2" fill="#090d17"/>
  </g>
  <path d="M14 30L46 56 32 68 66 100 58 116" stroke="#090d17" stroke-width="4" stroke-linejoin="round" fill="none" opacity=".9"/>
</svg>
