<svg xmlns="http://www.w3.org/2000/svg" viewBox="0 0 48 48" fill="none" aria-hidden="true" focusable="false">
  <defs><clipPath id="wingpotmax-body"><path d="M20 9h8v9.2a11.5 11.5 0 1 1-8 0Z"/></clipPath></defs>
  <path d="M20 9h8v9.2a11.5 11.5 0 1 1-8 0Z" fill="#151a27"/>
  <rect x="12" y="23" width="24" height="23" fill="#dfb956" clip-path="url(#wingpotmax-body)"
        opacity=".9"/>
  <path d="M20 9h8v9.2a11.5 11.5 0 1 1-8 0Z" stroke="#dfb956" stroke-width="2.4" stroke-linejoin="round"/>
  <rect x="17.5" y="4" width="13" height="6" rx="2" fill="#dfb956"/>
  <path d="M24 42c-6 0-11-3.5-12-9.5 5 1 9 3.5 12 7 3-3.5 7-6 12-7-1 6-6 9.5-12 9.5Z"
        fill="#efe7d8"/>
  <path d="M24 28c-4.5 0-8-2.4-9-7 3.4.8 6.4 2.4 9 4.8 2.6-2.4 5.6-4 9-4.8-1 4.6-4.5 7-9 7Z"
        fill="#efe7d8" opacity=".65"/>
  <path d="M6 11l1.5 4L11.5 16.5 7.5 18 6 22l-1.5-4L.5 16.5 4.5 15Z" fill="#dfb956"/>
  <path d="M42 11l1.5 4L47.5 16.5 43.5 18 42 22l-1.5-4L36.5 16.5 40.5 15Z" fill="#dfb956"/>
</svg>
